<?xml version="1.0" standalone="no"?><!DOCTYPE svg PUBLIC "-//W3C//DTD SVG 1.1//EN" "http://www.w3.org/Graphics/SVG/1.1/DTD/svg11.dtd"><svg t="1635257149863" class="icon" viewBox="0 0 1024 1024" version="1.1" xmlns="http://www.w3.org/2000/svg" p-id="7861" xmlns:xlink="http://www.w3.org/1999/xlink" width="200" height="200"><defs><style type="text/css"></style></defs><path d="M840.13 419.436c58.845 0 108.906 38.993 109.902 90.984l0.015 1.58v305.872c0 52.252-49.473 91.767-108.137 92.552l-1.78 0.012H352.047c-15.464 0-28-12.536-28-28 0-15.31 12.286-27.75 27.537-27.996l0.463-0.004H840.13c30.733 0 53.458-17.67 53.91-36.008l0.007-0.556V512c0-18.35-22.419-36.203-52.989-36.559l-0.928-0.005H761.3c-15.464 0-28-12.536-28-28 0-15.31 12.287-27.75 27.537-28h79.292zM431.047 129.077l177.046 102.218c37.129 21.436 60 61.051 60 103.923v204.436c0 42.872-22.871 82.487-60 103.923L431.047 745.795c-37.128 21.436-82.872 21.436-120 0L134 643.577c-37.128-21.436-60-61.051-60-103.923V335.218c0-42.872 22.872-82.487 60-103.923l177.047-102.218c37.128-21.436 82.872-21.436 120 0z m-91.405 48.158l-0.595 0.34L162 279.791a64.011 64.011 0 0 0-32 54.74v205.122a64 64 0 0 0 31.408 55.08l0.592 0.346 177.047 102.217a64 64 0 0 0 63.404 0.34l0.596-0.34L580.093 595.08a64.011 64.011 0 0 0 32-54.74V335.217a64 64 0 0 0-31.408-55.08l-0.592-0.346-177.046-102.218a64 64 0 0 0-63.405-0.34z m30.405 86.2c96.097 0 174 77.68 174 173.5 0 95.822-77.903 173.5-174 173.5-96.098 0-174-77.678-174-173.5 0-95.82 77.902-173.5 174-173.5z m0 56c-65.206 0-118 52.644-118 117.5 0 64.858 52.794 117.5 118 117.5 65.205 0 118-52.642 118-117.5 0-64.856-52.795-117.5-118-117.5z" p-id="7862"></path></svg>